<?xml version="1.0" encoding="utf-8"?>
<!-- Generator: Adobe Illustrator 24.1.2, SVG Export Plug-In . SVG Version: 6.00 Build 0)  -->
<svg version="1.1" id="Слой_1" xmlns="http://www.w3.org/2000/svg" xmlns:xlink="http://www.w3.org/1999/xlink" x="0px" y="0px"
	 viewBox="0 0 512 512" style="enable-background:new 0 0 512 512;" xml:space="preserve">
<g transform="translate(0.000000,512.000000) scale(0.100000,-0.100000)">
	<path d="M2259.7,5108.8c-339.4-38.2-745.4-180-1042.3-363.3c-240.1-149.5-515.1-393.8-678.9-605.5
		C259.1,3779,83.4,3363.3,14.6,2901.9c-21.8-148.4-18.6-558.6,5.5-714.6C132.5,1461.8,534.1,829.1,1141,424.4
		c313.2-208.4,680-349.1,1054.3-404.7c179-26.2,550.1-26.2,729.1,0c448.6,66.5,889.5,258.5,1239.9,538.9
		c501,401.5,833.8,978.6,935.3,1620c27.3,173.5,27.3,585.8,0,759.3c-90.6,571.6-359.1,1085.5-772.7,1479.3
		c-403.8,384-939.7,633.8-1485.4,692.7C2717,5124.1,2384.1,5123,2259.7,5108.8z M4207.8,3803c0-5.5-19.6-26.2-42.6-46.9
		c-85.1-72-699.6-638.2-737.8-678.6c-19.6-20.7-351.4-329.5-618.8-574.9c-127.7-117.8-182.3-151.6-246.7-151.6
		c-85.1,0-88.4,2.2-541.3,418.9c-90.6,82.9-208.5,194.2-263,245.5c-175.7,169.1-706.1,657.8-803.3,740.7
		c-22.9,20.7-42.6,41.5-42.6,46.9c0,5.5,655.9,9.8,1648,9.8S4207.8,3808.4,4207.8,3803z M1271.9,3210.6
		c164.8-150.5,361.3-332.7,436.6-403.6l135.3-128.7l-42.6-42.5c-24-22.9-237.9-220.4-474.8-437.5
		c-236.8-218.2-470.4-434.2-518.4-480c-48-46.9-108.1-102.5-133.2-125.5l-46.9-40.4v1059.3c0,1084.4,0,1080,41.5,1126.9
		c15.3,17.5,26.2,8.7,159.3-116.7C907.4,3547.7,1107.1,3362.2,1271.9,3210.6z M4472,3702.6c18.6-34.9,19.6-109.1,19.6-1094.2v-1056
		l-69.9,63.3c-159.3,146.2-988.8,919.7-1059.8,988.4l-76.4,75.3l104.8,100.4c56.8,55.6,260.8,243.3,451.8,416.7
		c192.1,174.5,402.7,368.7,469.3,433.1c65.5,64.4,125.5,115.6,131,114.5C4449.1,3741.9,4462.1,3723.3,4472,3702.6z M2161.4,2393.5
		c219.4-205.1,251-222.5,403.8-222.5c156.1,0,186.6,16.4,400.6,217.1c95,88.4,176.8,159.3,182.3,157.1
		c6.5-1.1,86.2-75.3,177.9-162.5c91.7-87.3,310-290.2,483.5-450.6c466-429.8,611.2-567.3,611.2-579.3c0-5.5-17.5-19.6-38.2-30.5
		c-36-17.5-140.8-18.5-1833.6-16.4c-1781.2,3.3-1795.4,3.3-1830.3,25.1l-34.9,21.8L855,1513.1c93.9,87.3,338.3,314.2,542.4,502.9
		c204.1,189.8,418,388.4,474.8,442.9c56.8,53.5,105.9,98.2,109.1,98.2S2065.4,2484,2161.4,2393.5z"/>
</g>
</svg>
